<svg xmlns="http://www.w3.org/2000/svg" viewBox="0 0 23.05 14.92"><defs><style>.cls-1,.cls-3{fill:#2ea0cb;}.cls-2{fill:#20b6b4;}.cls-3{fill-rule:evenodd;}.cls-4{fill:#fff;}</style></defs><g id="圖層_2" data-name="圖層 2"><g id="圖層_1-2" data-name="圖層 1"><path class="cls-1" d="M16.75,13.34l.33.06-.12.11c-.47.13-.95.24-1.43.34l-.1-.12.64-.13c0-.09-.05-.17-.07-.26l-.24.05a.89.89,0,0,1-.14.25l-.19,0h0l0,0c.08.35.16.7.25,1l-.37.1,0-.13-.71.11,0,.11-.38.07c-.08-.41-.16-.83-.23-1.24l.35,0,0-.19-.36,0-.09-.12c.39,0,.77-.09,1.15-.15l.15-.11.32.08-.12.1-.31,0a1.06,1.06,0,0,0,0,.19l.11-.08.31.06a1.61,1.61,0,0,0,0-.44l.39-.05a1.55,1.55,0,0,1,0,.21l.16,0L15.91,13l.44-.07.06.23h0l.15-.12.32,0-.11.11-.36.09c0,.09,0,.18.07.26l.09,0Zm-2.33.59,0-.13h-.06c0,.13,0,.25.07.38A.55.55,0,0,0,14.42,13.93Zm.71.31,0-.11-.18,0c-.1,0-.15,0-.16-.09a2.82,2.82,0,0,1-.07-.31h-.06l0,.14a.39.39,0,0,1-.19.38l-.07,0,0,.08Zm-.47-.83h-.08c0,.08,0,.15,0,.22h.08C14.69,13.56,14.67,13.48,14.66,13.41Zm.53,1.09,0-.13-.7.1,0,.14ZM15,14a0,0,0,0,0,0,0h.05c0-.1-.05-.19-.07-.29l-.08,0C15,13.81,15,13.9,15,14Zm1.09-.16v.05l.48-.12.17-.14.4,0-.07.09c.05.18.11.36.17.54l-.46.16,0-.12-.49.12,0,.09-.48.13c-.07-.26-.14-.51-.2-.77Zm.53.05-.48.12.09.32.49-.11C16.67,14.1,16.63,14,16.6,13.88Z"/><path class="cls-1" d="M17.84,12.48l.12.37.22-.08.14-.15.34,0-.11.12L18,13l.21.58.54-.3.17.06a8.48,8.48,0,0,1-1.13.77l-.39-.16.31-.13c-.14-.39-.26-.79-.38-1.18ZM20,12a2.8,2.8,0,0,1-.72.62l.21.51a.06.06,0,0,0,.09,0l.22-.1a.12.12,0,0,0,.06-.14v-.29l.24-.08a.84.84,0,0,0,.05.17.27.27,0,0,0,.26.17c0,.13-.15.26-.37.36l-.57.26c-.22.1-.37.08-.44,0q-.26-.64-.48-1.29L19,12l.18.47a3.73,3.73,0,0,0,.35-.46Z"/><path class="cls-1" d="M20.39,12.08l-.16,0a1.53,1.53,0,0,0,.22-.79l.48-.21a1.86,1.86,0,0,1-.12.42c.09.19.19.39.29.58l-.38.24-.18-.36Zm.62.1a1.39,1.39,0,0,1,0,.48l-.49.1a1.21,1.21,0,0,0,.17-.48Zm.19-1a2.26,2.26,0,0,1,.11.22,1.54,1.54,0,0,0,.05-.31,1.25,1.25,0,0,0,0-.34l.43-.19v.17l.34-.24.1-.18.31-.06-.08.15-.06.05a.74.74,0,0,1-.05.48,2.1,2.1,0,0,0,.48-.23c0,.13,0,.26-.07.39a2.91,2.91,0,0,1-.6.15h0a3.67,3.67,0,0,1-.39.42,3.68,3.68,0,0,1,.48-.13c-.08.13-.17.25-.26.37a1.24,1.24,0,0,0-.37-.06l.11-.15-.16.14-.13,0a2.56,2.56,0,0,0,.48-.57.48.48,0,0,1-.24-.06,1.49,1.49,0,0,1-.18.3h-.12l.12.24-.32.22c-.1-.19-.2-.39-.29-.59Zm.25.74.11.21s.05,0,.1,0,.38-.24.56-.37.06,0,.06-.07l0-.19.2-.12a.46.46,0,0,0,0,.09c0,.07.12.08.23,0a.42.42,0,0,1-.21.31q-.47.33-1,.63c-.19.11-.31.11-.37,0L21,12.1ZM22,11a.58.58,0,0,0,0-.26l-.23.16s0,0,0,.06A.75.75,0,0,0,22,11Zm1.06.11-.25.36a1.23,1.23,0,0,0-.37-.12l.14-.19A2.12,2.12,0,0,1,23.05,11.07Z"/><path class="cls-2" d="M5.74,14.06c-.43,0-6.43-.34-4.58-2.81C-1.1,12.86,0,14.13,4,14.39a32.39,32.39,0,0,0,8-.57c.62-.12,1.24-.26,1.84-.42-.68.12-1.29.22-1.86.3A37.93,37.93,0,0,1,5.74,14.06Z"/><path class="cls-2" d="M11.17,7.86C5.43,8.64,1,10.49,1.15,12s5,2.12,10.76,1.35,10.21-2.63,10-4.15S16.9,7.09,11.17,7.86Zm.66,4.91c-4.51.61-8.3.13-8.46-1.06s3.37-2.65,7.88-3.26,8.29-.13,8.45,1.06S16.34,12.17,11.83,12.77Z"/><path class="cls-2" d="M18,8.89c2,1.21-2.81,2.61-3.15,2.69-1.16.29-2.11.51-3.12.7s-2.11.34-3.55.48a33.12,33.12,0,0,0,3.57-.33,32.9,32.9,0,0,0,4.6-1C19.54,10.49,20.18,9.47,18,8.89Z"/><path class="cls-3" d="M7.39,7.18C7.62,3.87,9.49,3.62,10.77,0,12,3.62,13.91,3.87,14.14,7.18A3.4,3.4,0,1,1,7.39,7.18Z"/><polygon class="cls-4" points="11.62 7.13 11.81 7.07 18.08 6.77 11.81 6.47 11.62 6.42 11.72 6.25 12.24 5.3 11.29 5.82 11.12 5.92 11.07 5.73 10.77 4.68 10.46 5.73 10.41 5.92 10.24 5.82 9.29 5.3 9.81 6.25 9.91 6.42 9.72 6.47 3.45 6.77 9.72 7.07 9.91 7.13 9.81 7.3 9.29 8.25 10.24 7.72 10.41 7.63 10.46 7.82 10.77 8.86 11.07 7.82 11.12 7.63 11.29 7.72 12.24 8.25 11.72 7.3 11.62 7.13"/><path class="cls-1" d="M3.45,6.77l4,.19c0-.13,0-.26,0-.38Z"/><path class="cls-1" d="M18.08,6.77l-4-.19c0,.12,0,.25,0,.38Z"/></g></g></svg>